<svg width="200" height="153" viewBox="0 0 200 153" fill="none" xmlns="http://www.w3.org/2000/svg">
<path d="M180.795 46.8481L190.566 46.8905C190.394 49.4061 190.505 53.5796 190.515 56.176L190.295 56.3959C188.568 56.2366 182.446 56.2716 180.646 56.3823C180.925 54.4442 180.739 49.1532 180.795 46.8481Z" fill="#FE8300"/>
<path d="M32.7868 34.6401C35.3769 34.6604 38.6597 34.5489 41.1737 34.7254C41.282 35.8218 41.3776 43.2318 41.1883 44.0221L40.8866 44.1369C38.7852 44.1415 33.8373 44.0257 31.9908 44.2777C31.9863 43.0391 31.8247 35.3307 32.1769 34.7192L32.7868 34.6401Z" fill="#FEA801"/>
<path d="M32.0044 59.0153C34.7655 58.9283 38.386 58.9471 41.1507 59.0169C41.3129 62.0782 41.2619 65.4248 41.2664 68.5067C40.498 68.6601 33.1944 68.5625 32.0064 68.5572L32.0044 59.0153Z" fill="#FE8300"/>
<path d="M54.4559 58.9617C57.1655 59.0987 60.7826 58.9886 63.5604 59.0016C63.7734 61.5607 63.6392 65.8477 63.6965 68.5816C60.7824 68.5009 57.4791 68.5664 54.539 68.5668C54.3276 65.8605 54.4527 61.7909 54.4559 58.9617Z" fill="#FEA801"/>
<path d="M31.9297 46.8583C35.0065 46.8482 38.0833 46.857 41.1602 46.8846C41.0993 48.5531 41.5152 55.3119 41.1299 56.1892C40.7327 56.4656 40.335 56.3858 39.8292 56.3772C38.6704 56.2854 32.9665 56.2887 31.9916 56.4506C31.9833 53.4289 32.0929 49.8241 31.9297 46.8583Z" fill="#FF9D00"/>
<path d="M184.814 34.6579C186.209 34.677 187.602 34.6685 188.997 34.6323C189.018 35.843 188.993 36.9359 188.953 38.1472C189.435 38.1016 190.058 38.112 190.553 38.1061C190.502 40.0682 190.582 42.1969 190.624 44.1739C189.558 44.1503 188.493 44.1443 187.427 44.1557C185.276 44.1383 182.887 44.0974 180.757 44.2217C180.831 41.4316 180.831 37.4495 180.652 34.7039L184.814 34.6579Z" fill="#FE8300"/>
<path d="M54.3169 83.0184C57.3906 82.9621 60.5616 82.9837 63.6432 82.9722C63.5189 85.5005 63.5916 89.7665 63.6878 92.3093C60.6449 92.451 57.3985 92.3281 54.3045 92.412C54.2757 89.2808 54.2799 86.1496 54.3169 83.0184Z" fill="#FE8300"/>
<path d="M54.4387 46.8683C57.5301 46.8477 60.6216 46.8519 63.713 46.8807C63.6028 49.7752 63.8499 53.4862 63.641 56.1259C63.3032 56.3941 62.9633 56.3341 62.5127 56.342L54.4704 56.3516L54.4387 46.8683Z" fill="#FEC121"/>
<path d="M120.095 58.9453C120.672 58.9786 120.59 58.8882 120.999 59.1672C121.21 60.4917 121.078 66.8703 121.071 68.5509C118.565 68.5853 116.004 68.5622 113.493 68.5664C113.038 68.5775 112.461 68.6452 112.142 68.3763C111.944 66.7081 112.087 60.972 112.098 58.9929C114.578 59.0455 117.632 59.0335 120.095 58.9453Z" fill="#FEC121"/>
<path d="M8.36743 46.8901C10.8066 46.7346 15.0823 46.856 17.5381 46.8994C17.5308 48.1004 17.6066 55.5421 17.3037 56.2519L16.9328 56.3585C14.481 56.2313 10.8987 56.3111 8.40979 56.3594C8.43277 53.2029 8.41861 50.0463 8.36743 46.8901Z" fill="#FE8300"/>
<path d="M74.8224 58.9712C75.0619 59.2473 74.9864 67.5341 74.9987 68.5674L66.1675 68.5778C65.8864 67.6015 66.0094 60.5015 66.0147 58.9963L74.8224 58.9712Z" fill="#FEA801"/>
<path d="M32.0147 22.4099C34.9729 22.5828 38.26 22.2986 41.1509 22.5276C41.1363 24.7418 41.439 30.0272 41.2308 31.8338C38.8524 31.6725 34.3214 31.6401 31.9282 31.8111C32.0482 28.747 31.9798 25.4979 32.0147 22.4099Z" fill="#FEA801"/>
<path d="M66.0156 34.7405C68.4552 34.6427 72.5766 34.5981 74.9758 34.7233C75.024 36.7297 74.9152 42.2875 75.1357 43.9353C74.5085 44.4538 67.7493 43.9764 66.0172 44.289C66.0327 41.1063 66.0322 37.9233 66.0156 34.7405Z" fill="#FEC121"/>
<path d="M112.11 46.8875C115.075 46.8526 118.041 46.8533 121.008 46.8896C121.081 48.2247 121.269 55.3891 120.902 56.2256L120.467 56.3578C117.865 56.3094 114.715 56.3142 112.113 56.4206C112.084 53.243 112.084 50.0651 112.11 46.8875Z" fill="#FEC121"/>
<path d="M66.0024 46.911C68.6739 46.7766 72.3309 46.8555 75.0795 46.8441C74.9244 49.8431 75.0003 52.7695 75.0594 55.7668C75.0681 56.2051 75.0807 56.0836 74.7891 56.3641C72.3109 56.5259 68.775 56.3103 66.0311 56.4166L66.0024 46.911Z" fill="#FEC121"/>
<path d="M86.0982 58.9443L86.3088 59.0019C86.5109 59.5156 86.3901 67.3776 86.3821 68.5572L77.8387 68.5739L77.6551 68.5206C77.4247 67.8786 77.5567 60.2215 77.5613 58.9902C80.407 59.0195 83.253 59.0043 86.0982 58.9443Z" fill="#FEC121"/>
<path d="M54.489 71.2023C56.9568 71.4018 61.0876 71.2413 63.6698 71.1763C63.6347 74.2742 63.6398 77.3736 63.6851 80.4715C61.7794 80.3949 56.2181 80.3082 54.4246 80.5597C54.4574 77.4748 54.3847 74.2684 54.489 71.2023Z" fill="#FE8300"/>
<path d="M112.111 34.7324L121.07 34.6865L121.112 44.1292C119.153 44.1891 113.72 43.9964 112.104 44.2745L112.111 34.7324Z" fill="#FEC121"/>
<path d="M54.7625 22.5018C57.6109 22.5923 60.8362 22.6044 63.6692 22.4424C63.6434 23.8306 63.872 30.906 63.3702 31.6065C60.6137 31.9653 57.1631 31.5026 54.4608 31.8167C54.4521 28.9488 54.4096 25.8189 54.4904 22.9375C54.4991 22.6296 54.4968 22.7079 54.7625 22.5018Z" fill="#FEC121"/>
<path d="M54.4607 10.9971C57.0972 11.0696 61.0925 11.0803 63.6796 10.9312C63.5371 13.0306 63.5382 18.024 63.698 20.0998L63.6338 20.1697C63.2109 20.3342 55.4878 20.2683 54.4796 20.2861L54.4607 10.9971Z" fill="#FEC121"/>
<path d="M135.011 58.9553C137.771 59.1133 140.776 58.8988 143.601 59.0358C143.636 62.0038 143.724 65.6343 143.604 68.5722C140.707 68.557 137.809 68.5628 134.912 68.5897C134.693 65.7378 134.692 61.7636 135.011 58.9553Z" fill="#FFA101"/>
<path d="M168.944 34.5679C171.743 34.7925 174.868 34.5007 177.74 34.6935L177.753 44.113C176.773 44.2709 170.264 44.1528 168.906 44.1456L168.944 34.5679Z" fill="#FEA801"/>
<path d="M96.9357 58.9356C97.3289 58.8824 97.3997 58.8175 97.7337 58.9958C97.9317 60.8156 97.7597 66.3659 97.806 68.5652L89.965 68.5631C89.5018 68.5871 89.5219 68.5981 89.0803 68.4697C88.8971 67.4602 89.0047 60.3922 89.008 58.9573C91.0122 59.0777 94.9516 59.0186 96.9357 58.9356Z" fill="#FEC121"/>
<path d="M146.329 46.874C149.232 46.8396 152.133 46.8416 155.036 46.8799C155.26 48.754 155.306 54.0102 155.075 56.0799C155.055 56.2583 154.872 56.2633 154.654 56.3421C152.789 56.2863 148.103 56.2558 146.358 56.4179C146.294 53.1233 146.314 50.1651 146.329 46.874Z" fill="#FEA801"/>
<path d="M168.901 46.8804C171.848 46.8534 174.797 46.847 177.745 46.8616C177.743 48.2419 178.028 55.755 177.573 56.4096C175.111 56.3967 171.293 56.1283 168.931 56.4096C168.872 53.2804 168.924 50.0261 168.901 46.8804Z" fill="#FF9400"/>
<path d="M85.5913 34.6553C86.1677 34.5979 85.9605 34.5049 86.326 34.7573C86.544 36.7442 86.4133 41.823 86.4247 44.1595C84.0663 44.0604 81.1758 44.1864 78.707 44.1519C78.1976 44.177 77.9146 44.2821 77.598 44.0297C77.4083 42.3441 77.5435 36.7125 77.551 34.7332C80.0035 34.582 83.0193 34.7414 85.5913 34.6553Z" fill="#FEC121"/>
<path d="M146.338 58.9844C149.126 59.0934 152.309 58.9773 155.167 59.0246C155.199 61.936 155.299 65.6978 155.167 68.5671L146.265 68.5705C146.33 65.5632 146.439 61.9724 146.338 58.9844Z" fill="#FF9000"/>
<path d="M89.0938 34.7305C91.6018 34.6145 95.2924 34.667 97.8189 34.7312C97.8044 37.6436 97.8305 41.2384 97.8926 44.1577C95.8147 44.1531 90.761 44.0325 88.9991 44.2983C89.1084 41.7234 88.8165 36.8976 89.0938 34.7305Z" fill="#FEC121"/>
<path d="M77.5315 46.8809L86.39 46.8647C86.3977 48.2122 86.5216 55.4158 86.2796 56.2778L85.9727 56.4125C83.8228 56.2093 79.773 56.3546 77.5353 56.3871C77.5607 53.2185 77.5595 50.0496 77.5315 46.8809Z" fill="#FEC121"/>
<path d="M100.693 34.7205C103.622 34.7166 106.55 34.6974 109.479 34.6628C109.486 36.0558 109.618 42.9808 109.436 44.0237L109.119 44.1787C107.045 44.1469 102.642 44.0684 100.703 44.2921C100.587 41.3869 100.691 37.6852 100.693 34.7205Z" fill="#FEC121"/>
<path d="M132.068 58.9409C132.233 58.9502 132.13 58.9295 132.35 59.0809C132.495 61.7895 132.389 65.7928 132.396 68.5718L123.964 68.5714L123.776 68.4867C123.52 67.6176 123.698 60.3864 123.705 59.0067C126.492 59.0212 129.281 58.9992 132.068 58.9409Z" fill="#FEA801"/>
<path d="M89.029 46.8741C91.8984 46.8621 94.9754 46.8067 97.8304 46.8926C97.7654 48.3428 97.9808 55.7265 97.6266 56.4103C94.9493 56.2978 91.7051 56.3386 89.0157 56.3723C88.9984 53.2063 89.0029 50.0401 89.029 46.8741Z" fill="#FEC121"/>
<path d="M66.021 95.1299L74.7914 95.1574C74.8564 97.453 74.9438 102.44 74.7629 104.534C71.9135 104.607 68.8546 104.542 65.9758 104.574C65.9222 101.36 65.8944 98.3492 66.021 95.1299Z" fill="#FE8300"/>
<path d="M66.0247 83.0012C68.8521 82.9636 72.1595 82.9087 74.9611 83.0099C74.8645 85.9806 74.9847 89.2491 74.9453 92.2733C72.0958 92.4266 68.9399 92.3788 66.0666 92.389L66.0247 83.0012Z" fill="#FE8300"/>
<path d="M131.782 34.6573C132.064 34.5911 132.039 34.6187 132.34 34.6374C132.505 34.9287 132.466 43.1553 132.51 44.233C130.615 44.0347 126.582 44.167 124.533 44.1791C124.149 44.2454 124.156 44.2777 123.805 44.1299C123.561 43.5332 123.704 35.8897 123.709 34.7118C126.342 34.7098 129.165 34.7571 131.782 34.6573Z" fill="#FEC121"/>
<path d="M100.793 58.9369C103.153 59.0451 107.104 59.0788 109.371 58.8652C109.304 61.9299 109.249 65.3465 109.356 68.3887L109.301 68.4625C108.775 68.6556 101.841 68.5778 100.693 68.5833C100.696 67.0635 100.553 59.8947 100.793 58.9369Z" fill="#FEC121"/>
<path d="M77.5344 95.0981C80.466 95.156 83.4319 95.1112 86.3747 95.1545L86.383 104.518C83.5759 104.674 80.4829 104.443 77.5613 104.61C77.5746 101.439 77.5656 98.2684 77.5344 95.0981Z" fill="#FE8300"/>
<path d="M134.969 46.8523C137.853 46.8744 140.736 46.8673 143.62 46.8311C143.637 48.0263 143.798 55.7305 143.471 56.2962L143.163 56.3528C140.483 56.4507 137.709 56.269 134.942 56.3746C134.906 53.2802 134.878 49.9348 134.969 46.8523Z" fill="#FEC121"/>
<path d="M112.122 71.2139C114.031 71.3165 119.172 71.3324 120.977 71.1792C120.911 74.1571 120.985 77.3302 120.94 80.3617C118.863 80.6913 114.665 80.2533 112.052 80.5597C111.809 78.1658 111.95 73.6555 112.122 71.2139Z" fill="#FEA801"/>
<path d="M86.1158 82.9609L86.217 82.9551L86.3756 83.0967C86.4717 86.0819 86.395 89.2883 86.3736 92.2908C83.7171 92.3703 80.5092 92.2272 77.9776 92.3963L77.8022 92.3717C77.3965 91.9381 77.5421 84.2923 77.5405 82.9782C80.3989 82.997 83.2574 82.9927 86.1158 82.9609Z" fill="#FE8300"/>
<path d="M100.698 46.876L109.482 46.8601C109.436 49.8652 109.561 53.446 109.431 56.312C106.738 56.5123 103.597 56.2535 100.703 56.4393C100.674 53.2516 100.672 50.0637 100.698 46.876Z" fill="#FEC121"/>
<path d="M73.5344 71.2355C74.0574 71.1893 74.3377 71.117 74.8317 71.2991C75.1305 72.0349 74.9758 79.2037 74.9705 80.4541L67.4931 80.4512C66.947 80.5279 66.7128 80.6045 66.1834 80.4382C65.8409 79.7371 66.0168 72.5467 66.0252 71.2644C68.5283 71.2847 71.0315 71.2746 73.5344 71.2355Z" fill="#FF9601"/>
<path d="M66.0364 11.0109L74.9698 11.0012C74.9445 14.0906 74.9544 17.1802 74.9995 20.2693C72.021 20.2503 69.0423 20.257 66.0638 20.2892C65.9912 17.2493 66.0312 14.0607 66.0364 11.0109Z" fill="#FEC121"/>
<path d="M123.696 46.8599C126.592 46.8764 129.486 46.869 132.38 46.8376C132.369 49.9237 132.379 53.0098 132.413 56.0957C132.101 56.3694 131.957 56.2965 131.456 56.3629C129.635 56.2954 125.451 56.2718 123.727 56.4414C123.644 53.3067 123.696 50.0066 123.696 46.8599Z" fill="#FEC121"/>
<path d="M117.227 82.9304C118.474 83.0171 119.65 82.9535 120.895 82.9087C120.974 85.8086 120.815 89.3402 120.836 92.3441C119.422 92.428 117.311 92.3629 115.841 92.3572C114.547 92.3297 113.42 92.2791 112.129 92.4338C111.993 89.6134 112.091 85.9155 112.081 83.0041C113.812 83.0041 115.499 83.0171 117.227 82.9304Z" fill="#FE8300"/>
<path d="M168.935 22.4236C171.68 22.5562 174.997 22.4527 177.762 22.4211C177.777 25.5227 177.775 28.6242 177.756 31.7256C174.894 31.8006 171.764 31.5798 168.931 31.8378L168.935 22.4236Z" fill="#FEA801"/>
<path d="M96.5612 95.0807C97.0513 95.0446 97.2812 94.9897 97.6295 95.3265C97.8334 96.9875 97.6801 102.508 97.6715 104.57C95.1031 104.534 92.5338 104.531 89.965 104.56C89.627 104.586 89.5585 104.573 89.2184 104.534C88.8364 103.88 89.0438 96.4049 89.0664 95.0966C91.1696 95.1776 94.4872 95.1819 96.5612 95.0807Z" fill="#FE8300"/>
<path d="M97.2854 82.9479C97.3852 82.9407 97.5095 82.997 97.6194 83.0303C97.8073 83.8514 97.6887 90.7484 97.787 92.3241C95.5928 92.4701 92.1887 92.3573 89.8865 92.3443L89.2308 92.3168C88.8552 91.8253 89.0114 84.1882 89.0132 83.0144C91.7563 82.9754 94.5477 83.052 97.2854 82.9479Z" fill="#FE8300"/>
<path d="M77.5743 71.1806C80.2093 71.2702 83.7546 71.3309 86.3825 71.1763C86.4047 74.1643 86.4046 77.1524 86.382 80.1419L86.3611 80.2778C85.9306 80.5843 78.7462 80.4224 77.5614 80.4137C77.5497 77.336 77.5539 74.2583 77.5743 71.1806Z" fill="#FEA801"/>
<path d="M157.675 59.0073C160.491 58.9837 163.308 58.9888 166.124 59.022C166.268 62.1209 166.138 65.4091 166.203 68.5672L157.66 68.5767C157.644 65.5467 157.537 61.997 157.675 59.0073Z" fill="#FE8300"/>
<path d="M100.714 22.5135C103.653 22.501 106.544 22.5405 109.502 22.5085C109.336 25.4307 109.7 29.048 109.456 31.8552C106.874 31.6861 103.275 31.692 100.69 31.8534C100.668 28.7401 100.675 25.6266 100.714 22.5135Z" fill="#FEC121"/>
<path d="M157.685 34.6092C160.457 34.6101 163.3 34.5781 166.064 34.6659C166.281 37.2686 166.18 41.3985 166.196 44.1476C163.461 44.2362 160.309 44.0091 157.625 44.2326C157.698 41.0873 157.548 37.7009 157.685 34.6092Z" fill="#FEA801"/>
<path d="M96.486 22.509C96.9732 22.4779 97.3779 22.4305 97.7393 22.7683C98.0126 24.3374 97.829 29.8592 97.8304 31.8078C96.1521 31.6695 93.0497 31.7674 91.2659 31.7691L89.0455 31.8063C89.0784 28.9113 88.8948 25.416 89.113 22.5865C91.571 22.5905 94.0289 22.5647 96.486 22.509Z" fill="#FEC121"/>
<path d="M153.759 22.5076C154.111 22.4716 154.807 22.4927 155.182 22.4925V31.6986C153.075 31.8246 150.287 31.7099 148.052 31.7569C147.375 31.8121 147.179 31.8623 146.531 31.7205C146.215 31.1859 146.326 23.6082 146.378 22.5658C148.814 22.5679 151.334 22.6035 153.759 22.5076Z" fill="#FEC121"/>
<path d="M124.115 95.1299C126.698 95.127 130.342 95.2672 132.787 95.0764C132.661 97.891 132.768 101.651 132.79 104.496C131.004 104.724 126.393 104.512 124.2 104.609L124.115 95.1299Z" fill="#FE8300"/>
<path d="M157.67 46.8903C159.847 46.7853 163.928 46.7832 166.066 46.918C166.167 48.1994 166.314 55.1042 166.129 56.1696L165.826 56.3805C163.227 56.4436 160.265 56.3646 157.597 56.3921C157.756 53.5421 157.644 49.8178 157.67 46.8903Z" fill="#FEA801"/>
<path d="M146.436 11.0139C149.281 11.0602 152.343 11.0018 155.2 10.9934L155.187 20.2469C152.234 20.2263 149.279 20.2367 146.326 20.2779C146.359 17.2777 146.287 13.9946 146.436 11.0139Z" fill="#FEC121"/>
<path d="M131.954 82.9435L132.198 82.9348C132.471 83.3092 132.338 91.3555 132.331 92.3226C129.746 92.4006 127.033 92.3558 124.442 92.3312C124.052 92.3703 124.223 92.4252 123.906 92.2344C123.529 91.2716 123.695 84.4715 123.702 83.0114C126.453 83.023 129.204 82.9999 131.954 82.9435Z" fill="#FE8300"/>
<path d="M134.958 71.1833C137.735 71.4118 140.659 71.153 143.465 71.2484C143.604 73.7334 143.743 78.0384 143.497 80.4598C140.649 80.3745 137.8 80.4049 134.953 80.5494C134.751 78.7742 134.544 72.7489 134.958 71.1833Z" fill="#FE8300"/>
<path d="M92.9879 71.2327C94.5719 71.2472 96.2316 71.3542 97.7813 71.1272C97.7133 74.1803 97.7682 77.4561 97.7711 80.5251C96.7925 80.395 95.396 80.434 94.3738 80.434C92.7549 80.434 90.5769 80.3704 89.0129 80.5627C89.0696 77.5038 88.9924 74.3393 89.0273 71.2501L92.9879 71.2327Z" fill="#FEA801"/>
<path d="M143.257 10.9487L143.548 11.023C143.757 11.6325 143.662 19.0104 143.662 20.2706C140.893 20.247 138.125 20.2476 135.357 20.2726L135.108 20.2176C134.825 19.6231 134.929 12.1281 134.968 11.0268C137.729 10.9837 140.499 11.0835 143.257 10.9487Z" fill="#FEC121"/>
<path d="M107.543 95.0821C108.029 95.0359 108.703 95.1197 109.203 95.1631C109.256 98.2321 109.213 101.462 109.213 104.542L102.397 104.544L100.68 104.574C100.701 101.485 100.593 98.1902 100.72 95.1313C102.961 95.1313 105.314 95.1674 107.543 95.0821Z" fill="#FE8300"/>
<path d="M22.4931 34.653C24.5637 34.6392 27.1165 34.5579 29.1478 34.6645C29.1499 37.7681 29.171 40.8717 29.2114 43.9749C28.8772 44.2602 28.8843 44.1568 28.3098 44.1535L20.7271 44.1409L20.7351 34.7002L22.4931 34.653Z" fill="#FEA801"/>
<path d="M20.7007 46.9127C23.309 46.7647 26.4976 46.8569 29.1488 46.8666C29.1463 48.4184 29.3023 55.3088 29.0998 56.3967C26.4094 56.2918 23.4332 56.3756 20.7209 56.3998C20.7546 53.2375 20.7478 50.0748 20.7007 46.9127Z" fill="#FE8300"/>
<path d="M123.808 10.9992L132.414 10.9944C132.321 14.0404 132.509 17.2851 132.341 20.2899C129.456 20.2614 126.569 20.2556 123.684 20.2724C123.769 17.1716 123.668 14.1342 123.808 10.9992Z" fill="#FEC121"/>
<path d="M100.878 107.353C103.59 107.441 106.5 107.387 109.226 107.383C109.147 110.531 109.097 113.683 109.082 116.833C106.385 117.003 103.608 116.749 100.706 116.98C100.698 115.73 100.519 107.971 100.878 107.353Z" fill="#FE8300"/>
<path d="M142.68 22.5098C143.224 22.4607 143.131 22.3888 143.558 22.5904C143.743 23.3319 143.647 30.5363 143.645 31.7594C141.217 31.8047 138.511 31.7412 136.08 31.7178C135.728 31.7269 135.578 31.6955 135.227 31.6448C134.731 31.0041 134.956 23.8312 134.965 22.5281C137.19 22.6092 140.484 22.5926 142.68 22.5098Z" fill="#FEC121"/>
<path d="M127.961 71.2327C128.934 71.1445 131.218 71.2298 132.354 71.2052C132.435 74.2323 132.372 77.4083 132.354 80.4469L128.779 80.4195C127.185 80.4209 125.3 80.3747 123.736 80.5149C123.585 77.8318 123.668 73.9562 123.708 71.2283C125.128 71.2601 126.544 71.3151 127.961 71.2327Z" fill="#FE8300"/>
<path d="M89.1553 107.338C91.4496 107.475 95.365 107.448 97.6469 107.299C97.6628 109.097 97.816 115.572 97.5746 116.984C96.2071 116.723 90.6697 116.798 89.2741 116.987C89.2604 113.798 89.2871 110.517 89.1553 107.338Z" fill="#FE8300"/>
<path d="M100.672 82.9983C103.199 82.9029 106.699 82.9419 109.246 82.9983C109.223 84.2328 109.424 91.7774 109.058 92.2949C106.287 92.4409 103.487 92.227 100.709 92.3918L100.672 82.9983Z" fill="#FE8300"/>
<path d="M159.876 22.5152C161.912 22.5514 164.129 22.474 166.178 22.4392C166.216 25.4728 166.187 28.6718 166.174 31.7128L164.486 31.7453C162.491 31.7141 159.585 31.6334 157.648 31.8077C157.66 28.726 157.654 25.6443 157.631 22.5625L159.876 22.5152Z" fill="#FEA801"/>
<path d="M100.7 71.1763C103.052 71.2399 107 71.4466 109.24 71.182C109.342 74.2583 109.212 77.3056 109.295 80.3689C108.68 80.5987 102.072 80.4541 100.675 80.5322L100.7 71.1763Z" fill="#FEA801"/>
<path d="M112.123 95.1341C114.838 95.1095 117.752 95.085 120.454 95.2006C120.406 98.3202 120.377 101.441 120.369 104.562C117.931 104.544 114.42 104.435 112.065 104.649C111.908 103.38 112.036 102.037 112.059 100.747L112.123 95.1341Z" fill="#FE8300"/>
<path d="M134.948 82.9739C137.56 83.0823 140.643 82.9768 143.331 83.023L143.336 92.3558C141.11 92.2633 137.183 92.2908 134.971 92.4281C134.93 89.2767 134.922 86.1253 134.948 82.9739Z" fill="#FE8300"/>
<path d="M51.8083 58.9536C52.122 59.4953 51.9733 67.377 51.9686 68.5708L44.0553 68.568C43.7231 68.0962 43.8665 60.2197 43.8682 59.027C46.5149 59.0179 49.1617 58.9935 51.8083 58.9536Z" fill="#FF9400"/>
<path d="M43.8687 46.8989C46.3085 46.7974 49.4786 46.8398 51.9315 46.8725C51.9711 48.6913 52.1264 54.543 51.9264 56.1368C51.4709 56.4204 51.5324 56.3266 50.9151 56.3562C48.5604 56.3312 46.2055 56.3303 43.8506 56.3536C43.874 53.2022 43.8799 50.0505 43.8687 46.8989Z" fill="#FEA801"/>
<path d="M165.414 10.9513L165.953 10.9402C166.418 11.5309 166.165 18.8025 166.151 20.0034C163.448 19.8917 161.213 19.864 158.498 19.8844C158.118 19.9266 158.203 19.9223 157.829 19.8879C157.45 19.4101 157.623 12.164 157.623 11.0038C160.22 11.0187 162.817 11.0012 165.414 10.9513Z" fill="#FEA801"/>
<path d="M112.1 22.5724C113.511 22.5542 114.874 22.5158 116.285 22.6228C117.46 23.4033 120.198 25.1331 121.028 26.0436C121.065 27.2616 121.188 30.5858 121.012 31.6671L120.779 31.8111C118.844 31.7436 113.788 31.6457 112.103 31.8524C112.098 28.7951 112.017 25.6151 112.1 22.5724Z" fill="#FEC121"/>
<path d="M49.9711 22.5196C50.5897 22.4726 51.3354 22.4932 51.9654 22.4936L51.9805 31.789C49.9347 31.7539 47.8888 31.7316 45.8428 31.7223C45.1077 31.706 44.5308 31.7494 43.8042 31.8017C43.9816 29.0934 43.8538 25.3141 43.8142 22.5264C45.8665 22.5422 47.919 22.5399 49.9711 22.5196Z" fill="#FEC121"/>
<path d="M153.141 71.2282C153.485 71.2094 154.116 71.2398 154.484 71.247C154.482 73.865 154.572 77.9662 154.364 80.4801C152.309 80.3615 149.739 80.4309 147.644 80.4338C147.234 80.4309 146.75 80.4844 146.332 80.5191C146.364 77.4327 146.372 74.3449 146.356 71.2586C148.617 71.2701 150.88 71.26 153.141 71.2282Z" fill="#FE8300"/>
<path d="M22.4985 22.2992C24.6764 22.2383 26.9771 22.2749 29.1649 22.2769L29.164 31.7658L27.4424 31.7635C25.2146 31.7108 22.9861 31.6983 20.7578 31.7261C20.8473 29.7262 20.8398 27.6541 20.8565 25.6462L22.4975 25.6079L22.4985 22.2992Z" fill="#FEA801"/>
<path d="M84.5672 22.5212L86.4031 22.4358C86.3799 25.5636 86.3895 28.6916 86.4313 31.8194C83.9231 31.7615 81.4144 31.7388 78.9056 31.7511C78.454 31.7715 78.0025 31.7983 77.5516 31.8315C77.5609 29.9485 77.5814 28.1004 77.5054 26.2179C79.0678 24.8789 80.7967 23.7847 82.4839 22.6019C83.1502 22.5536 83.8934 22.5446 84.5672 22.5212Z" fill="#FEC121"/>
<path d="M168.929 58.9768C171.552 59.0471 174.405 58.9995 177.042 58.9996C177.055 61.6335 177.119 65.2529 176.99 67.8287C174.366 67.9252 171.641 67.8321 168.954 67.9215C168.916 64.9401 168.908 61.9584 168.929 58.9768Z" fill="#FE8300"/>
<path d="M50.9058 71.2283C51.3693 71.1473 51.5611 71.1705 51.8896 71.3931C52.154 72.3428 51.9782 79.049 51.9785 80.4267L44.8621 80.4339C44.5331 80.4339 44.5831 80.4266 44.2555 80.35C44.0926 79.4769 44.2741 76.6609 44.2699 75.5362C44.2649 74.1426 44.2435 72.6218 44.2368 71.2254C46.3492 71.315 48.769 71.2456 50.9058 71.2283Z" fill="#FE8300"/>
<path d="M100.701 119.556C103.205 119.683 106.261 119.592 108.803 119.568C108.798 120.821 109.069 127.744 108.742 128.21C106.387 128.224 102.906 128.075 100.714 128.262C100.615 125.62 100.701 122.249 100.701 119.556Z" fill="#FE8300"/>
<path d="M43.8318 10.998C46.3178 11.0984 49.4264 11.0053 51.9607 11.0015C51.9811 12.3498 52.1832 19.0106 51.7401 19.6786L51.407 19.659C49.1769 19.539 46.139 19.6292 43.846 19.6357C43.8627 16.7565 43.858 13.8773 43.8318 10.998Z" fill="#FEC121"/>
<path d="M40.2891 10.9456C40.67 10.963 40.6285 10.9677 41.0034 11.0574C41.2741 11.6202 41.2438 18.4474 41.2973 19.7199C38.9156 19.5413 36.7253 19.6072 34.3402 19.6501C33.8839 19.6446 33.6724 19.6352 33.2218 19.5806C33.0125 18.9405 33.1592 12.1067 33.1714 10.9943C35.4656 11.0193 38.0147 11.0586 40.2891 10.9456Z" fill="#FEA801"/>
<path d="M21.4773 59.0171C23.9107 58.9379 26.6971 58.9957 29.1583 58.9925C29.1865 60.669 29.2868 66.5647 29.0857 67.9253C26.7103 67.7741 23.7744 67.8541 21.3562 67.8587C21.5141 64.9082 21.4717 61.9723 21.4773 59.0171Z" fill="#FE8300"/>
<path d="M90.5469 119.649C92.7684 119.559 95.3182 119.598 97.5658 119.579C97.6973 120.708 97.7638 127.096 97.573 128.065C97.148 128.327 97.1393 128.228 96.5423 128.226L89.7563 128.252C89.9055 126.741 89.5677 120.39 89.9976 119.724L90.5469 119.649Z" fill="#FE8300"/>
<path d="M54.4417 0.0368652C57.2765 0.145141 60.7767 0.0899149 63.6105 0.0400416C63.5611 2.42095 63.6441 4.98372 63.6808 7.37807L54.4707 7.42766L54.4417 0.0368652Z" fill="#FEA801"/>
<path d="M112.126 0.0539027C114.861 0.1616 118.328 0.0949496 121.078 0.034668C121.019 2.39201 121.074 4.96346 121.078 7.33714C119.438 7.5521 114.183 7.38961 112.116 7.42402C112.097 4.99873 112.043 2.46835 112.126 0.0539027Z" fill="#FEA801"/>
<path d="M66.0538 0.0505852C69.031 0.104073 72.0091 0.0988624 74.986 0.0354004C74.9363 2.25035 74.9243 4.82787 75.0499 7.02287L74.9868 7.20285C74.525 7.5203 67.1786 7.41506 66.0834 7.43386C65.9318 5.34438 66.0405 2.21827 66.0538 0.0505852Z" fill="#FEA801"/>
<path d="M146.469 0.0358887C148.454 0.233503 152.963 0.0624915 155.192 0.0632143C155.212 2.51033 155.215 4.95745 155.199 7.40457C152.281 7.37175 149.331 7.41107 146.406 7.39372C146.371 6.12737 146.215 1.06588 146.469 0.0358887Z" fill="#FEA801"/>
<path d="M77.5696 0.0531347C80.5119 0.0272584 83.4407 0.101127 86.3867 0.0317383L86.3924 7.38697C83.5151 7.45506 80.4264 7.39579 77.5229 7.42137C77.6176 5.09409 77.5626 2.40744 77.5696 0.0531347Z" fill="#FEA801"/>
<path d="M89.1614 0.0335372C90.9661 0.201227 95.8563 0.0608599 97.7782 0C97.8173 1.06165 97.9676 6.85057 97.6308 7.41536C96.0234 7.38558 90.4852 7.51511 89.322 7.29567C88.8489 6.57518 88.9901 1.11167 89.1614 0.0335372Z" fill="#FEA801"/>
<path d="M134.969 0.0297852C137.073 0.235205 141.499 0.0884777 143.739 0.0560961C143.734 2.33943 143.695 4.71455 143.783 6.98834L143.653 7.27009C142.928 7.5128 136.192 7.41031 134.965 7.40626C134.948 4.94744 134.949 2.48861 134.969 0.0297852Z" fill="#FEA801"/>
<path d="M100.693 0.0463444C103.607 0.000663346 106.304 0.182229 109.349 0.0136719C109.418 2.30018 109.368 4.80686 109.399 7.13023C109.386 7.14946 109.376 7.17302 109.359 7.1882C108.801 7.65253 101.939 7.40692 100.706 7.45694C100.642 5.05377 100.691 2.46339 100.693 0.0463444Z" fill="#FEA801"/>
<path d="M123.861 0.113536L132.348 0.0334473C132.461 2.19462 132.4 5.02801 132.369 7.22779C131.99 7.52847 124.786 7.41022 123.695 7.41268C123.692 6.23943 123.535 0.901535 123.861 0.113536Z" fill="#FEA801"/>
<path d="M77.5628 10.9768C80.4625 11.0482 83.4645 11.0102 86.3787 11.0437C86.3733 12.4129 86.3934 13.7821 86.4391 15.1505L83.1381 17.3544C81.4139 18.6427 79.616 20.1863 77.5374 20.3916C77.5966 17.3107 77.5579 14.0698 77.5628 10.9768Z" fill="#FEC121"/>
<path d="M147.822 34.6572C150.154 34.6767 152.935 34.5443 155.189 34.6896C155.196 37.4816 155.209 40.2858 155.203 43.077C155.202 43.6718 155.248 43.9047 154.909 44.2359L154.459 44.1625C151.759 42.3984 149.07 40.4093 146.345 38.7091C146.358 37.4041 146.074 35.9834 146.531 34.9326C147.049 34.5576 147.044 34.6871 147.822 34.6572Z" fill="#FEC121"/>
<path d="M113.463 107.374C115.231 107.407 116.997 107.409 118.765 107.378C118.541 108.827 118.693 116.532 118.481 116.857L118.082 116.86C116.363 116.838 113.729 116.76 112.103 117.016C112.065 114.3 111.993 110.181 112.155 107.543C112.587 107.325 112.937 107.388 113.463 107.374Z" fill="#FE8300"/>
<path d="M16.0571 34.657C16.3994 34.637 17.1842 34.6811 17.5611 34.6902C17.5848 37.8589 17.5774 41.0276 17.539 44.1962C15.7722 44.1381 14.0298 44.1618 12.2634 44.1779L10.4889 44.2003C10.4322 42.5284 10.4846 40.5792 10.493 38.8857C10.9918 38.9293 11.5633 39.0139 12.0674 39.0755L12.0451 34.6749C13.3538 34.6998 14.7422 34.6664 16.0571 34.657Z" fill="#FE8300"/>
<path d="M112.122 11.0339C114.975 10.9981 118.236 10.9546 121.065 11.0605L121.081 20.334C119.358 20.1777 113.775 15.8268 112.127 14.5668C112.068 13.4359 112.109 12.1756 112.122 11.0339Z" fill="#FEC121"/>
<path d="M84.3801 107.374L86.3579 107.353C86.4733 110.29 86.4006 113.871 86.4091 116.852L82.3753 116.847C81.6506 116.868 80.9258 116.876 80.201 116.876C79.6875 114.786 80.2981 109.913 80.0473 107.394C81.4916 107.418 82.9362 107.412 84.3801 107.374Z" fill="#FE8300"/>
<path d="M45.7412 34.6537C47.8169 34.6787 49.8929 34.6602 51.968 34.5981C52.0147 36.1075 52.0186 37.618 51.9794 39.1276C50.8638 39.983 49.5263 40.7414 48.3454 41.5486C46.9362 42.6218 45.5265 43.7137 43.9058 44.447C43.8004 41.3954 43.8236 37.7308 43.8766 34.6795L45.7412 34.6537Z" fill="#FEC121"/>
<path d="M43.8878 0.0433181C46.2032 0.0929023 49.7138 0.149713 51.968 0.0144043L52.0119 7.38033C49.2874 7.40317 46.5626 7.41141 43.8379 7.40505L43.8878 0.0433181Z" fill="#FEA801"/>
<path d="M100.811 130.974C103.069 131.007 105.327 130.972 107.59 131.003C107.569 133.801 107.491 136.565 107.564 139.365C107.117 139.656 101.68 139.524 100.811 139.519V130.974Z" fill="#FE8300"/>
<path d="M100.709 10.9268C102.138 11.3166 108.315 15.8242 109.39 17.0242C109.442 18.1036 109.473 18.9406 109.433 20.0169C109.34 20.0883 109.249 20.1598 109.157 20.2312C106.754 20.3164 102.957 20.2584 100.686 20.3171L100.709 10.9268Z" fill="#FEC121"/>
<path d="M173.301 10.9557C173.923 10.9007 174.778 10.9293 175.42 10.9317C175.397 11.9779 175.417 19.2017 175.318 19.5125C174.407 19.7962 172.02 19.6301 170.937 19.5951L168.922 19.6901C168.942 16.8094 168.922 13.9286 168.86 11.0487C170.34 10.9871 171.821 10.9562 173.301 10.9557Z" fill="#FEA801"/>
<path d="M97.3968 11.1548C97.4532 11.1804 97.6541 11.3644 97.7105 11.4134C97.9823 12.674 97.8464 18.641 97.8276 20.3386C95.3793 20.1836 92.3126 20.266 89.8205 20.2711L89.2737 20.2543L89.1308 20.0688C89.0574 19.3136 88.9283 18.434 89.089 17.6854C89.3893 16.2877 96.009 12.0814 97.3968 11.1548Z" fill="#FEC121"/>
<path d="M91.3105 130.988C93.3814 130.992 95.4522 130.978 97.5223 130.948C97.6582 133.398 97.7623 136.958 97.5353 139.364C97.0178 139.599 92.295 139.505 91.3247 139.504L91.3105 130.988Z" fill="#FE8300"/>
<path d="M39.0032 71.2515L39.3831 71.3498C39.7033 71.9164 39.5569 77.9041 39.5504 79.0057C37.497 78.9493 35.3622 78.9941 33.3015 79.01L33.0952 78.945C32.7472 78.4231 32.7781 72.392 32.7612 71.3021C34.7322 71.2066 36.9801 71.2891 39.0032 71.2515Z" fill="#FE8300"/>
<path d="M158.025 0.0773926C160.032 0.151118 161.999 0.0130687 164.075 0.131753C163.935 2.33586 163.722 2.41884 165.06 2.92191C165.473 3.0776 165.321 6.56743 165.313 7.38955L158.024 7.3988C158.124 5.11084 158.089 2.37041 158.025 0.0773926Z" fill="#FEA801"/>
<path d="M163.789 71.2297C164.254 71.1964 164.486 71.1285 164.888 71.3598C165.094 72.0103 164.908 77.8332 164.893 78.9781C163.336 78.9781 161.78 78.9911 160.223 79.0186C159.637 79.0822 159.522 79.1184 158.958 79.0085C158.615 78.4664 158.797 72.5857 158.763 71.2817C160.444 71.2413 162.109 71.3208 163.789 71.2297Z" fill="#FE8300"/>
<path d="M135.083 36.2061C137.169 37.0864 141.067 39.9494 142.984 41.4331C143.748 42.0252 143.647 43.2547 143.615 44.1446C141.271 44.1554 137.089 44.0211 134.959 44.2433C134.939 42.2293 134.807 37.9996 135.083 36.2061Z" fill="#FEC121"/>
<path d="M63.2393 36.3079L63.5638 36.3726C63.7092 36.8875 63.6959 43.2472 63.7036 44.1854C61.1721 44.0658 57.4615 44.1488 54.9088 44.2014C54.659 44.1962 54.7581 44.1923 54.4947 44.0382C54.2112 42.4735 55.0262 41.9302 56.2566 41.0937C58.5438 39.5386 60.8835 37.7162 63.2393 36.3079Z" fill="#FEC121"/>
<path d="M0.0761521 46.8931C1.26473 46.7806 3.86219 46.8541 5.14892 46.858C5.1654 49.314 5.19576 51.793 5.14213 54.2486C5.13157 54.7293 5.18911 54.6094 4.87078 54.8907C3.48864 54.8182 1.44716 54.8824 0.071092 54.9236C0.091475 53.3065 -0.102235 48.0967 0.0761521 46.8931Z" fill="#FE8300"/>
<path d="M96.8011 144.719C98.3999 144.791 100.46 144.734 102.092 144.733C101.937 147.121 102.19 149.622 102.036 152.053C101.806 152.288 97.4747 152.233 96.7664 152.25C96.8155 149.777 96.7794 147.203 96.8011 144.719Z" fill="#FE8300"/>
<path d="M194.394 46.8616C195.972 46.8898 197.551 46.8768 199.129 46.8228C199.138 47.9152 199.297 54.4803 198.982 54.8976C197.519 54.8318 195.787 54.8143 194.34 54.9327C194.375 52.6453 194.174 48.9628 194.394 46.8616Z" fill="#FE8300"/>
<path d="M81.037 119.587C82.7991 119.676 84.6067 119.639 86.3743 119.624C86.4033 121.924 86.4103 124.226 86.3951 126.526C84.7004 126.51 82.7118 126.471 81.0484 126.614C81.0215 124.272 81.0177 121.929 81.037 119.587Z" fill="#FE8300"/>
<path d="M112.1 119.62L117.616 119.579L117.615 126.205C115.769 126.206 113.923 126.223 112.077 126.257C112.097 124.045 112.104 121.832 112.1 119.62Z" fill="#FE8300"/>
<path d="M151.708 82.9406C152.117 82.9132 152.256 82.9175 152.666 82.9479C153.07 83.4365 152.876 88.7288 152.867 89.748C151.51 89.7971 150.024 89.7784 148.656 89.7885C148.328 89.8044 148.146 89.7856 147.818 89.7596C147.574 89.3273 147.689 84.0075 147.695 83.0418C149.032 83.0014 150.371 82.9681 151.708 82.9406Z" fill="#FE8300"/>
<path d="M180.516 22.4447L183.023 22.4446C182.962 23.4043 182.981 24.6328 182.969 25.6142L184.513 25.606C184.665 27.629 184.703 29.659 184.624 31.6863C183.3 31.6668 181.874 31.7073 180.541 31.7196C180.403 28.9469 180.49 25.2331 180.516 22.4447Z" fill="#FEA801"/>
<path d="M45.7397 82.9954L50.5598 82.981C50.5673 85.2708 50.563 87.51 50.6867 89.7999L45.7687 89.7912C45.7986 87.5259 45.7889 85.2607 45.7397 82.9954Z" fill="#FE8300"/>
<path d="M66.0088 22.5332C69.1429 22.526 72.2771 22.551 75.4107 22.6081C74.004 23.5578 72.6085 24.5242 71.2248 25.5072C70.5971 26.0736 66.8795 28.6257 66.0712 29.189C65.9598 27.1515 66.0169 24.6089 66.0088 22.5332Z" fill="#FEC121"/>
<path d="M181.648 59.0222C182.911 59.031 185.74 58.7419 186.639 59.2945C187.197 60.0247 186.913 63.1241 186.981 64.4732C186.021 64.6396 182.959 64.4988 181.635 64.5682C181.655 62.7196 181.659 60.8708 181.648 59.0222Z" fill="#FE8300"/>
<path d="M131.302 22.5133C131.676 22.4918 131.847 22.5291 132.217 22.5774C132.581 23.1449 132.38 27.8081 132.362 28.8454C131.127 28.1104 129.397 26.7935 128.205 25.9173C126.599 24.8504 125.018 23.7443 123.465 22.5999C126.079 22.5373 128.68 22.6044 131.302 22.5133Z" fill="#FEC121"/>
<path d="M11.9557 59.0014C13.7305 59.0058 15.5054 58.9982 17.28 58.9785C17.1039 60.8209 17.1064 62.6761 17.2872 64.5182L11.9109 64.5171C12.1043 62.8467 12.0069 60.7092 11.9557 59.0014Z" fill="#FE8300"/>
<path d="M73.6716 107.335C74.8564 107.397 75.9295 107.403 77.1174 107.401C77.1321 108.538 77.3286 114.605 76.965 115.157C75.8099 115.124 74.7508 115.075 73.6083 115.261C73.5704 112.799 73.5788 109.791 73.6716 107.335Z" fill="#FE8300"/>
<path d="M122.242 107.326C123.287 107.446 123.802 107.413 124.842 107.338L124.84 115.111C123.801 115.099 123.183 115.089 122.16 115.218C122.293 112.794 122.209 109.827 122.242 107.326Z" fill="#FE8300"/>
<path d="M123.819 27.9829C124.987 28.5334 127.03 30.1481 128.192 30.924C128.651 31.2296 128.786 31.2986 128.841 31.7081C127.841 31.8233 125.051 31.7558 123.799 31.8136L123.819 27.9829Z" fill="#FEC121"/>
<path d="M74.5132 28.3386L74.8512 28.3914C75.0303 28.8508 75.0228 31.1409 75.0461 31.8027C73.5655 31.7166 72.0079 31.7397 70.5195 31.7364L70.3039 31.7952L70.115 31.6482C70.3581 30.9388 73.7491 28.7879 74.5132 28.3386Z" fill="#FEC121"/>
<path d="M54.4757 34.7214L58.6125 34.7288L56.6739 35.9894C55.9134 36.5563 55.2361 37.0111 54.442 37.5304C54.4371 36.5939 54.4483 35.6575 54.4757 34.7214Z" fill="#FEC121"/>
<path d="M89.1393 11.0383C90.1045 11.0765 91.2145 11.0503 92.192 11.049C91.7002 11.4159 91.0778 11.7986 90.5561 12.1384L89.1251 13.2354C89.0981 12.5379 89.1287 11.7436 89.1393 11.0383Z" fill="#FEC121"/>
<path d="M140.996 34.7501C141.79 34.7061 142.803 34.7223 143.614 34.7119C143.672 35.361 143.663 36.0261 143.669 36.6792C142.787 36.2779 141.619 35.5016 140.996 34.7501Z" fill="#FEC121"/>
<path d="M108.49 11.0925C108.694 11.0829 108.94 11.0978 109.149 11.1036C109.612 11.5834 109.6 12.3149 109.148 12.7983L108.729 12.6339C108.285 12.2727 107.519 11.778 107.375 11.3242C107.837 11.0277 107.851 11.1272 108.49 11.0925Z" fill="#FEC121"/>
</svg>
